<svg width="29" height="28" viewBox="0 0 29 28" fill="none" xmlns="http://www.w3.org/2000/svg">
<path d="M25.4038 10.4999L24.3464 6.71034C23.9387 5.2491 23.7348 4.51849 23.3167 3.96825C22.9002 3.42027 22.3343 2.99789 21.6839 2.74942C21.0306 2.49994 20.2557 2.49994 18.7058 2.49994M3.0769 10.4999L4.13431 6.71034C4.54203 5.2491 4.74589 4.51849 5.16404 3.96825C5.58048 3.42027 6.14635 2.99789 6.7969 2.74942C7.45012 2.49994 8.22508 2.49994 9.77498 2.49994" stroke="#155000" stroke-width="2"/>
<path d="M9.82693 2.5C9.82693 1.67158 10.4856 1 11.2981 1H17.1827C17.9952 1 18.6539 1.67158 18.6539 2.5C18.6539 3.32842 17.9952 4 17.1827 4H11.2981C10.4856 4 9.82693 3.32842 9.82693 2.5Z" stroke="#155000" stroke-width="2"/>
<path d="M8.26923 15.5V21.5" stroke="#155000" stroke-width="2" stroke-linecap="round" stroke-linejoin="round"/>
<path d="M20.2115 15.5V21.5" stroke="#155000" stroke-width="2" stroke-linecap="round" stroke-linejoin="round"/>
<path d="M14.5 15.5V21.5" stroke="#155000" stroke-width="2" stroke-linecap="round" stroke-linejoin="round"/>
<path d="M2.32668 20.5615C3.14311 23.6537 3.55133 25.1997 4.7689 26.0999C5.98649 27 7.66959 27 11.0358 27H17.9641C21.3304 27 23.0135 27 24.2311 26.0999C25.4487 25.1997 25.8569 23.6537 26.6733 20.5615C27.9569 15.6998 28.5988 13.269 27.251 11.6346C25.9032 10 23.2569 10 17.9641 10H11.0358C5.74316 10 3.09685 10 1.74902 11.6346C0.957844 12.5939 0.852257 13.8278 1.15962 15.6667" stroke="#155000" stroke-width="2" stroke-linecap="round"/>
</svg>
